# xmcd
#
# Track frame offsets: 
#        150
#        13460
#        25507
#        38795
#        52430
#        64892
#        77442
#        91777
#        104565
#        117830
#        132155
#        145482
#        158272
#        170520
#        183352
#        198285
#        213180
#        228005
#        243400
#        258272
#        273445
#        287850
#        300730
#        313387
#
# Disc length: 4333 seconds
#
# Revision: 4
# Processed by: cddbd v1.5.2PL0 Copyright (c) Steve Scherf et al.
# Submitted via: ExactAudioCopy v1.1
#
DISCID=5110eb18
DTITLE=Jimmie Rodgers - The Singing Brakeman - Disc 4
DYEAR=1992
DGENRE=Country
TTITLE0=In The Jailhouse Now No. 2 (mono)
TTITLE1=Blue Yodel No. 9 (Standin' On The Corner) (mono)
TTITLE2=T.B. Blues (alt - take 2) (mono)
TTITLE3=T.B. Blues (master - take 3) (mono)
TTITLE4=Travellin' Blues (alt - take 1) (mono)
TTITLE5=Travellin' Blues (master - take 2) (mono)
TTITLE6=Travellin' Blues (alt - take 3) (mono)
TTITLE7=Jimmie The Kid (master - take 1) (mono)
TTITLE8=Jimmie The Kid (alt - take 3) (mono)
TTITLE9=Jimmie Rodgers and Sara Carter - Why There's A Tear In My Eye (m
TTITLE9=ono)
TTITLE10=Jimmie Rodgers and Sara Carter - The Wonderful City (mono)
TTITLE11=Let Me Be Your Sidetrack (alt - take 2) (mono)
TTITLE12=Let Me Be Your Sidetrack (master - take 3) (mono)
TTITLE13=Let Me Be Your Sidetrack (alt - take 4) (mono)
TTITLE14=Jimmie Rodgers and The Carter Family - Jimmie Rodgers Visits Th
TTITLE14=e Carter Family (mono)
TTITLE15=Jimmie Rodgers and The Carter Family - The Carter Family and Jimm
TTITLE15=ie Rodgers In Texas (mono)
TTITLE16=When The Cactus Is In Bloom (mono)
TTITLE17=Gambling Polka Dot Blues (mono)
TTITLE18=Looking For A New Mama (alt - take 1) (mono)
TTITLE19=Looking For A New Mama (master - take 3) (mono)
TTITLE20=What's It (mono)
TTITLE21=My Good Gal's Gone (alt - take 1) (mono)
TTITLE22=My Good Gal's Gone (master - take 3) (mono)
TTITLE23=Southern Cannonball (mono)
EXTD=Bear Family Records  BCD15540\n6 CD Boxed Set with book/discograp
EXTD=hy\n1992  Recorded Aug 1927 - May 1933\nTitles include release ye
EXTD=ar. YEAR: 1992
EXTT0=
EXTT1=
EXTT2=
EXTT3=
EXTT4=
EXTT5=
EXTT6=
EXTT7=
EXTT8=
EXTT9=
EXTT10=
EXTT11=
EXTT12=
EXTT13=
EXTT14=
EXTT15=
EXTT16=
EXTT17=
EXTT18=
EXTT19=
EXTT20=
EXTT21=
EXTT22=
EXTT23=
PLAYORDER=
